/* XPM */
static char *_b3342994c224034ddd5a04426a716d2gHmOMHAhqblpYMVV[] = {
/* columns rows colors chars-per-pixel */
"36 36 106 2 ",
"   c None",
".  c #EB9A23",
"X  c #E7952C",
"o  c #EA9B2C",
"O  c #E79832",
"+  c #E99D34",
"@  c #E99E3A",
"#  c #F9A827",
"$  c #F1A028",
"%  c #FBAC2A",
"&  c #EAA037",
"*  c #EBA33B",
"=  c #EFA83A",
"-  c #F2AB3B",
";  c #F2B53E",
":  c #FDB33A",
">  c #F7B93B",
",  c #FBBE3F",
"<  c #EBA642",
"1  c #EDAA46",
"2  c #ECA548",
"3  c #EDAC4B",
"4  c #F0AB45",
"5  c #F0AE48",
"6  c #EFB246",
"7  c #EFB24D",
"8  c #F4B345",
"9  c #F9B443",
"0  c #F5B846",
"q  c #F1B44C",
"w  c #F4B94C",
"e  c #FABB4A",
"r  c #EEAD50",
"t  c #EEB352",
"y  c #EEB658",
"u  c #F1B453",
"i  c #F3BA54",
"p  c #FBBD53",
"a  c #F1B659",
"s  c #F2BC5C",
"d  c #FBBD59",
"f  c #FDC143",
"g  c #FBCA47",
"h  c #F7C04E",
"j  c #FCC34D",
"k  c #FBCC4C",
"l  c #F6C154",
"z  c #FCC453",
"x  c #FDCA53",
"c  c #F4C35C",
"v  c #FDC25B",
"b  c #F6C95F",
"n  c #FCCC5B",
"m  c #FFD452",
"M  c #FFDC55",
"N  c #F3C363",
"B  c #FCC663",
"V  c #F5C965",
"C  c #FCCB65",
"Z  c #F4C46D",
"A  c #FBC568",
"S  c #F5CB6B",
"D  c #FCCC6B",
"F  c #FDD464",
"G  c #FBD46C",
"H  c #FDDA6D",
"J  c #FBC770",
"K  c #F6CD71",
"L  c #FDCE73",
"P  c #F6CF7D",
"I  c #F6D272",
"U  c #FCD574",
"Y  c #F6DA74",
"T  c #FBDB74",
"R  c #FDD57B",
"E  c #FCDA7B",
"W  c #FDE174",
"Q  c #F7E67E",
"!  c #FEE27B",
"~  c #FCD682",
"^  c #FDDC82",
"/  c #F9DB8C",
"(  c #F9DB90",
")  c #F7E480",
"_  c #FDE284",
"`  c #FCE986",
"'  c #FEE58B",
"]  c #FEEB8C",
"[  c #FFF08F",
"{  c #FEE392",
"}  c #FFED91",
"|  c #FCE59B",
" . c #FDED9D",
".. c #FFF292",
"X. c #FFF59F",
"o. c #FFF999",
"O. c #FEEEA6",
"+. c #FFEEA9",
"@. c #FEF3A4",
"#. c #FFFAA2",
"$. c #FEF5AC",
"%. c #FFFCAE",
"&. c #FFF6B2",
"*. c #FFFBB6",
"=. c #FFFCBA",
"-. c #FFFEC0",
/* pixels */
"                          ! W T U Y Y Y Y Q                             ",
"                      T H T E ^ ^ ^ ^ E _ _ ! T Q                       ",
"                  G H U ^ ' ] ] } ] ] } } } { ) E ! )                   ",
"              H H L ^ ' ' ' ' ] ' ` ] ] ] ........' E ! ..              ",
"            G G R ' _ _ _ E S c i 7 7 t s S ^ } ......^ T ]             ",
"          F D ~ ^ ^ ^ U l 7 y s N N N N s 7 < t R ..} ..} T ]           ",
"        F A ~ E E E V q s N N N N S S S I I I s & y ' [ ..} U ]         ",
"      F C ~ E E T c t s s s s N N N S S S S I Y I t @ ) ....] T ..      ",
"      F L R R U c u a a i s c s N N N Z S S K K I Y N O ) } ../ !       ",
"    n B L U R V q u u a a s s c s I Y S S S S I I I E N @ ] ] ..E )     ",
"  F C D D U G t r u u u a a s c t ` #.S c S S S K I I Y t y ....] !     ",
"  n d D C U s 2 r 5 u u i a a y N ] X./ I c V S K I K I I * Y ....E )   ",
"  n d B C I 2 2 3 5 u u u u t E ..o.#.%.&.| K S S S K I R s t ..} _ Y   ",
"n x p l G N @ 2 3 3 3 q u r G [ ..` `  .*.*.K N S S S K I I * ^ } ] !   ",
"x p p p U 7 @ < 2 3 3 3 u u _ [ R i y s / / s S V S S S S Y t S ..} ! Q ",
"l q p p I * @ < < 2 1 3 5 a _ [ I 7 y s i s N N N V S S S I s s } } ! Y ",
"j q w l I O @ * < < 1 2 3 3 T ..} ^ Z t a N N N N N A S S K N t ] } _ Y ",
"h 7 8 b S O @ @ * < < 1 3 3 r ) o.o.X.| K i s s N N N V V S N t ] ] ~ Y ",
"h 7 6 c I X & & & * < < 1 3 3 7 I ` o.*.*.( a c N N N N N S N i ' } ^ Y ",
"h 1 6 l I O + + * * < = < 1 3 3 1 7 S X.*.=.P a s N s N N N N i ] ] _ T ",
"g 1 6 w E * + & & & * < < 1 1 1 3 7 1 y $.=.| q s c s N N V y N ] ] E T ",
"k e 6 ; E u o * & * * * = & S E t 3 1 N &.-./ q s s s s s N q I ' ' E W ",
"g k 6 ; G K $ = * * * * & 1 ] ..] ` { @.=.&.s u a a s s s N w E ' ' T   ",
"  k 6 0 l ) ; = = = * * * * s ` ..o.#.%.$.Z 3 u u i s a s a c ` ] ~ G   ",
"  k 0 0 > E U # 9 - - = * = o < c ] @.P u 4 t u u u a a s i E _ ' T T   ",
"  g m 5 e j } p : 9 - - = * = * . ` #.r * 3 3 7 u u u a u V _ ^ ~ H     ",
"    k e e e U  .p 9 9 - = * * * & N S 3 1 2 3 t u u u u V E ^ ' U H     ",
"      M 8 j j { +.v : 9 - * * * & O O * 1 2 2 3 5 r u B E ~ ^ L H       ",
"      k m 9 z n | O.v % - - * * & * @ < < < 2 2 2 a G U E ~ ~ H W       ",
"        g k 9 z n E  .U 9 $ o + + @ @ @ @ @ @ r V U U R E ~ F H         ",
"          k z 9 j j x E ` U s 3 & O O * 3 a S T G U L ~ R G F           ",
"            k m 8 e j f j S Y ^ Y P Y Y T G C B B D L J F F             ",
"              k M j 0 e e ; ; 0 i l l i p w v B C A B F H               ",
"                  k m j 6 7 6 w 8 q w w p p d p v F n                   ",
"                      k x x z e q 8 q q p z x n n                       ",
"                          k k k z k z x x b                             "
};
