/* XPM */
static char *acd11a59d3834528efe63de902466b91TWXLpelxdSNVuDay[] = {
/* columns rows colors chars-per-pixel */
"64 64 119 2 ",
"   c None",
".  c #E7962E",
"X  c #EB9C2D",
"o  c #E79731",
"O  c #EA9D35",
"+  c #E99E3A",
"@  c #EEA02F",
"#  c #F0A32F",
"$  c #F9AB2E",
"%  c #EBA134",
"&  c #EBA33B",
"*  c #EFA83A",
"=  c #F1A433",
"-  c #F4AA35",
";  c #FAAE31",
":  c #F3AB3B",
">  c #F3B13E",
",  c #FAB23D",
"<  c #F6B83F",
"1  c #EBA542",
"2  c #ECAA46",
"3  c #EDA749",
"4  c #EEAC4B",
"5  c #F6AF40",
"6  c #F0AE4A",
"7  c #EFB246",
"8  c #EEB14D",
"9  c #F2B445",
"0  c #FAB542",
"q  c #F5B946",
"w  c #FABB45",
"e  c #F2B44B",
"r  c #F5BB4B",
"t  c #FABC4B",
"y  c #EFAE50",
"u  c #F0AF51",
"i  c #EEB453",
"p  c #EFB856",
"a  c #EFB759",
"s  c #EFBA5B",
"d  c #F1B453",
"f  c #F2BA55",
"g  c #FABD54",
"h  c #F1B758",
"j  c #F2BC5B",
"k  c #FBBE59",
"l  c #F2BF62",
"z  c #FCC046",
"x  c #FBCB46",
"c  c #F7C04E",
"v  c #FAC34C",
"b  c #FCCC4D",
"n  c #FDD24E",
"m  c #F5C155",
"M  c #FBC453",
"N  c #FCCA54",
"B  c #F4C25D",
"V  c #FBC35B",
"C  c #FDCB5B",
"Z  c #FED351",
"A  c #FED850",
"S  c #FCD05D",
"D  c #F4C463",
"F  c #FCC663",
"G  c #F5C965",
"H  c #FCCB64",
"J  c #F4C56A",
"K  c #FCC669",
"L  c #F5CB6B",
"P  c #FBCD6A",
"I  c #FDD365",
"U  c #FFD865",
"Y  c #F7D16E",
"T  c #FBD36C",
"R  c #FEDA6E",
"E  c #F5C672",
"W  c #F6CE72",
"Q  c #FECE72",
"!  c #F7CF7B",
"~  c #F6D273",
"^  c #FCD474",
"/  c #F6D974",
"(  c #FBDB74",
")  c #F7D27C",
"_  c #FED57B",
"`  c #F6DE78",
"'  c #FCDB7C",
"]  c #FDE177",
"[  c #F7E37D",
"{  c #FDE27C",
"}  c #FEE87F",
"|  c #F7D481",
" . c #F9D683",
".. c #F6DA81",
"X. c #FDDC82",
"o. c #FCDD89",
"O. c #FADE93",
"+. c #F7E582",
"@. c #FDE384",
"#. c #FDEB85",
"$. c #FEE48A",
"%. c #FEEB8D",
"&. c #FFF08E",
"*. c #FBE393",
"=. c #FEED91",
"-. c #FCE59B",
";. c #FDEB9C",
":. c #FFF193",
">. c #FEF59C",
",. c #FFF89D",
"<. c #FCEBA5",
"1. c #FDEFAA",
"2. c #FEF4A2",
"3. c #FFF9A3",
"4. c #FDF3AB",
"5. c #FFF9AC",
"6. c #FEF6B2",
"7. c #FFFBB4",
"8. c #FFFCBB",
/* pixels */
"                                                { ] ( ( / ( / / / / / / ` [ [ #.                                                ",
"                                            ] { ] ] ( ( ( ( ( ) / ( ( ( ' ` [ } #.                                              ",
"                                      ] R ( R ( ( ( ' ' _ X.X.....' ..@.X.{ { { ] ` ` [ #.                                      ",
"                                  R ( ( ( ^ ( _ @.@.$.$.$.@.$.$.$.$.$.$.$.#.@.$.@.' ' { } @.                                    ",
"                              ( T T ( ( _  .X.@.$.$.%.%.*.%.=.%.=.%.=.=.=.=.=.%.$.$.X.' { { [ +.                                ",
"                            R R T ^ ' ' X.@.$.$.%.%.$.%.%.%.%.=.%.%.=.%.:.:.:.=.=.%.%.%.$.+.' ' } #.                            ",
"                        ( R R ( _ _ X.@.$.$.$.$.$.@.@.@.@.' { ' { @.+.@.$.$.%.%.=.=.:.:.=.%.X.' ] @.&.                          ",
"                      U U U ^ _ X.X.X.@.$.$.@.X._ ( T L D D B B j B B D G W ` @.%.=.:.:.=.%.=.%.@.' ] #.%.                      ",
"                    U T T ^ _  .X.$.X.@.X.' ( ~ G G B s p p i i d i i p s s D L ~ ` +.%.=.:.:.:.$.$.{ { +.$.                    ",
"                  T P P ^  .X.X.@.@.X.' ^ P B m p p p s B B B D D D B B B p i 8 8 p J ` %.=.=.=.&.%.$.{ ' +.%.                  ",
"                I H T Q _ X.X.X.' _ / T G B f p p m B D D D D L J J J D D D s p i i a s L ` +.=.:.:.=.$.{ ' { %.                ",
"              U I K Q _ X.X.' _ _ T H j r f j j D D D D D D J J L L L ~ Y W Y W J D a 2 4 l ` #.%.=.:.=.%.{ ( $.%.              ",
"            I H H Q _ X._ ' _ _ Y D m j j a j l B D D D D D J D J L L L Y W W ~ ~ L J p i i s J +.=.:.:.=.$.{ { @.              ",
"            I I P _ _ _ _ _ ( T C j f h h j j j s s l D D D J D D L L L L L Y W ~ ~ / ~ D i 1 8 P +.%.:.=.=.%.{ { %.            ",
"          U T P Q _ _ _ _ ( T D j d d h j h j j j j s D D D D D G D L L L L L W ~ ~ ~ ~ ~ L s 8 8 B +.%.:.:.=.@.{ } #.          ",
"        I I H Q Q _ _ ^ ^ T D g d d h h h j j j j j B j B B D G D D L J L L Y L L ~ ~ ~ / ) Y B 1 8 L @.%.:.=.$.@.] }           ",
"        H D K Q Q ^ _ ^ T H j d u d d h h h j j j j j j l D J Y ~ ~ L L L L L L L W W Y ~ ~ ) L B i 8 L %.&.:.=.%.' ' +.        ",
"      S C H K P ^ Q ^ ^ H j d y u d d d d h h h j j j l j j L ' $...L J D L L L L Y L ~ W ~ ( / L s 2 p ) %.=.:.%.@.{ {         ",
"      S H H K Q ^ ^ Y T D i y y u d y d d h h f j j j j f f / %.>.=.W D D J L L L Y ~ W ~ ~ ~ ~ / J a i l ` :.=.=.$.@.{ #.      ",
"    C H C K P K T T Y G f 4 y y u d d i d d h h d j j j f j ( %.>.;.) L G G G J L L L L ~ L W ~ / ~ D i 4 L %.=.=.=.$.] } #.    ",
"    C V V F K K P T P m i 3 4 y u u 6 d d d h d h j j j B G [ :.>.;.$.| W L D L L L L L ~ W ~ ~ ~ ) ~ p 2 D ` %.:.=.%.' { [     ",
"    C V k F F K P T G 8 3 3 4 4 6 6 d d e d h f f d j G ( +.%.:.>.2.2.;.-.o.) W L L L L L Y L ~ W / / D i p L +.:.=.%.X.( `     ",
"  S C V k k C K L Y s 3 1 3 4 4 6 6 d u u d d d d h D ` $.:.:.,.>.3.4.5.6.1.-.) L J L L L L W ~ L ~ ~ L D i s ` =.=.%.$.' /     ",
"S C C V k k C H Y J a 1 1 3 3 3 4 u 6 6 u e d d h D ( #.:.:.=.=.%.;.2.6.7.8.4...L G J J L L L P W ~ ~ ~ J 8 8 ~ %.=.%.%.+.{ @.  ",
"N N M M g g V P T B 4 1 + 3 3 3 3 4 6 8 d d d y j Y @.&.:.$.+.' / ..o.;.4.4.<.) D G G L L L L L L ~ W ~ Y i 8 L @.%.=.%.$.{ }   ",
"N M M k g f m T G f 3 + 1 1 3 3 3 4 4 6 4 i 6 d l _ #.%.%.) D j D D D ) *.O. .L D D J G D L L L L L L ~ ~ s i D ( %.=.=.$.] } [ ",
"M k t g g g m I L y 1 + 1 1 1 1 2 4 3 4 4 e 8 i D ] %.&.@.W j e i f j D W W E D B D L D G J L L L Y L ~ ~ B p B ~ %.=.=.$.{ { ] ",
"M t g e r g B T J 3 + + + 1 1 1 2 2 3 4 4 4 8 i D ' #.%.o.W j i p p j j j s B D D D D D D L D L L L L Y L J s s L $.:.=.$.{ { / ",
"c r e e r g B T D 1 O + + 1 1 1 1 2 2 4 4 8 8 4 j ^ #.&.%.X.W D l j f d f j B D D D D D D G J G L L L L L J m p G $.=.=.$.{ ` ( ",
"c g e e r f B Y B & o + + + & 1 1 1 2 2 2 2 8 4 d P { %.:.%.$.` W J j j j j j l j D D D D G G J L D L L Y J D p B @.=.=.%.X.( / ",
"c r e e e m B L B + o + + + 1 1 1 1 1 2 2 4 4 2 8 j Y $.:.:.:.&.*.$. .! J j j j D D D D D D D J J L L L L J D i B +.:.%.$.X.` ~ ",
"c r e 7 e f C Y s & . + & + & + & 1 1 1 2 4 2 4 4 4 j ( +.&.,.,.3.2.;.*. .J B j j j B B D D D D J D D L L J B p B X.%.%.$.' ) / ",
"m r 7 7 7 m B Y B + . O O + + & & 1 & 1 1 2 2 2 4 4 e f L ' %.:.,.3.5.4.2.O.! D j k l l D D D D D D J K L D D p B @.=.=.$...( / ",
"c r 7 7 7 m m Y D % . + + + & + & & 1 2 2 2 2 4 4 4 3 8 f D L ` $.>.3.7.8.1.*.E j j j D D j j D D G D D J D s p D { %.%.$.X.( ( ",
"c q 7 7 7 c m ~ D & . O O % & & & & 1 & & 2 2 2 2 4 8 4 4 e d j L ..;.4.8.8.4.O.J j j l j j D D D D D G L D B p D @.%.%.$.X.( / ",
"c c 7 7 7 7 m ~ J & O O O + O O & & & & 1 & 1 2 2 2 2 3 2 2 4 8 p l ~ *.6.8.6.-.! f f j j D j D D D D D D B j j G @.%.%.@.X.( / ",
"x r 7 7 7 q m ~ L 2 % O O O & & & & & & 1 1 & & 1 2 8 2 4 4 8 e 2 8 s | 4.8.8.<. .j d j D j k j j D D D D j p B P { =.$.@.' ' ( ",
"b c r 7 7 7 c Y Y i & O O = & % + & & & & & 2 & 1 p D G s 4 4 4 2 4 p | 4.8.8.<.) j e j j j j j l j j D D j f D ~ $.*.=.X.' ] ] ",
"b v z r 7 > q L ~ j 2 X X & & & & & & & & 1 & & 2 L ( ..W s i i 8 f J *.6.8.6.O.E f e j j j j j j D j D D j i G _ $.%.$.@.] ] ] ",
"b v v r 7 > q H / L e @ @ * & % & & & & & & & & f ( %.%.$.` ) / / X.*.2.8.8.1.| l h d h h j j j j j l D l f f T ' $.$.$.X.( ]   ",
"x b b t 7 > q m Y / g # = : * * % & & & & % & & i ` #.:.:.:.&.#.=.;.5.5.6.4.O.J d d d j f j h j j j j j j f m ( @.$.$.o.' ( ]   ",
"  b N z 9 9 q c H _ L : = : * : * & * & * & & & 2 D ~ +.:.:.:.>.>.2.5.6.4.O.E h 8 d h d d j j h j j l j j m B _ @.#.$.X.^ ^     ",
"    b c 9 7 9 q C ` / g > - - : * * * * * & & & & 7 p G / +.%.>.>.>.;.*.| J a i 6 d d d h h h h h j j j f D T ' $.$.X._ / R     ",
"    b z q q q q v ^ _ P r $ , : > * * * & * & & & % & 8 i G ] :.>.;.| J p 4 4 4 d d d d d d d h h h j f f G _ X.@.$.@._ ( (     ",
"    b b v q 9 q z H ( ' C , , 0 , : : * * * & % & % & & % 7 Y =.,.*.J i 1 2 4 i 6 u d d d d d h h h j f B T @.@.X.$.' ( R ]     ",
"      n n c q q t v U $._ V 0 , 0 < > * * * * * & & & & X % G %.>.+.s 3 1 2 4 8 6 u u d d d d h h h f B T _ @.X.o.X._ R (       ",
"      b b z 9 q q z C _ o._ V 0 0 0 > > * * * & & % & & % % f / ..E i 1 1 2 4 8 6 4 d 6 6 u d h i f j P ( _ X.$.X._ ^ (         ",
"        b v t q w z C T @.;._ C t 0 < < < * * * & & & & & & 4 j s s 4 3 1 4 2 4 4 y u u u d y d d g G T _ X.X.X.X.^ T R         ",
"        x Z n q 9 z v C ^ *.;.o.F w , , 0 : : & & & = & & & & & & & 1 1 1 2 3 3 3 4 y y y y i d B G ^ _ _ X.X. ._ T R           ",
"          n Z v r t t N I X.-.<.X.K t , , , : : & & & & O & O o o + + 1 1 2 2 3 4 4 3 4 4 d d B G T _ '  .X.X._ ^ R R           ",
"          b b b v q w v C T X.-.;.o.F w ; - : : & : & O & + & + & & 1 & 1 1 3 3 3 3 3 3 y h B I ( _ _ ' X.X._ ^ R R             ",
"            x n N v t t t C T X.*.*._ P t 0 , = = @ % O O + + + + & + + 1 + + + 1 3 y d m D P ^ ^ _ _ X._ _ ^ ^ R               ",
"              b b N v q t M M H ^ X.$.@.^ V q - @ @ X O O O O O + + + + + + + 1 3 4 p D P ^ ^ _ _ _ _  ._ ^ T U R               ",
"                b b b z t t v N C I ^ ' _ _ P D f e 2 & & O O O o + + + 1 2 y p j D G T T ^ ^ ^ _ _ _ _ Q T U (                 ",
"                  b b N t t t t v v N H ( ( ' ( P D j i 6 1 1 & 1 1 1 4 8 p m G Y T T ^ Q Q Q _ _ _ ^ T H T U                   ",
"                    b b b b t t t t z v b C C T ^ ^ ^ W L L G D G D D J L G Y P P P P K P Q ^ Q Q Q P T U U                     ",
"                      b n n b t t t t w w w v V S G Y Y T Y Y Y ~ Y T T Y I G H K H F K P P P Q K P U U U                       ",
"                        x n Z Z v t r q q r q r c c c c m m B B m m B B m M m V V F F F K K K H I T U                           ",
"                            A Z b v v v t q q 9 > > 7 7 q r r r m m r r f g g g k V F F K K H H I U                             ",
"                              x b b Z b v r e 9 7 7 r 9 e e e e 7 r i r f g g g k k k C C I S S                                 ",
"                                  n n b b v v v c c r r e e e 9 e e r f t k g M M V M C S I                                     ",
"                                      b b b N Z n b v r r r e e e e r t M M M C C C C C S                                       ",
"                                            b b N b v v c r c c t M c v M N C C C                                               ",
"                                                b b b N b v N v M M m N N N N C                                                 "
};
