/* XPM */
static char *_195779becab4a34e6b167b06f7d344b3MtVfBBdWmpxYdPi[] = {
/* columns rows colors chars-per-pixel */
"64 64 116 2 ",
"   c #17172A",
".  c #18172A",
"X  c #17182B",
"o  c #1A1C2C",
"O  c #1D1F30",
"+  c #1D232E",
"@  c #1D2032",
"#  c #20252F",
"$  c #212437",
"%  c #23273C",
"&  c #252A3F",
"*  c #273936",
"=  c #283A36",
"-  c #313E37",
";  c #313E3B",
":  c #21473B",
">  c #304E3D",
",  c #33503D",
"<  c #41573F",
"1  c #42583E",
"2  c #272C41",
"3  c #282E44",
"4  c #2A3047",
"5  c #2C334B",
"6  c #323D44",
"7  c #2F3751",
"8  c #333B57",
"9  c #333D58",
"0  c #3C4C49",
"q  c #364156",
"w  c #384457",
"e  c #364358",
"r  c #3A4758",
"t  c #3B4959",
"y  c #345359",
"u  c #39565A",
"i  c #286546",
"p  c #366C48",
"a  c #386D48",
"s  c #34695C",
"d  c #405442",
"f  c #40515A",
"g  c #465B5B",
"h  c #495E5C",
"j  c #4B774A",
"k  c #4E784A",
"l  c #58784D",
"z  c #4C6550",
"x  c #4D645D",
"c  c #47735E",
"v  c #5C7E58",
"b  c #5E7F60",
"n  c #2D8251",
"m  c #35825E",
"M  c #329E5B",
"N  c #33A562",
"B  c #32AF61",
"V  c #35B664",
"C  c #36BC65",
"Z  c #39BD65",
"A  c #5C804C",
"S  c #4F9455",
"D  c #549755",
"F  c #6B945F",
"G  c #709C59",
"H  c #4AAA5D",
"J  c #78A959",
"K  c #488B60",
"L  c #5F8060",
"P  c #688E62",
"I  c #6D9664",
"U  c #629963",
"Y  c #709A64",
"T  c #5BAC65",
"R  c #75A265",
"E  c #78A766",
"W  c #7BAC67",
"Q  c #65B166",
"!  c #63BD67",
"~  c #53C367",
"^  c #57CD69",
"/  c #5BCF69",
"(  c #67CA67",
")  c #6BC168",
"_  c #78C263",
"`  c #70CF68",
"'  c #6AD56A",
"]  c #75DA6C",
"[  c #85BD63",
"{  c #81B468",
"}  c #8FCE65",
"|  c #8BC46A",
" . c #8DC86A",
".. c #90CE65",
"X. c #89DF6D",
"o. c #93D265",
"O. c #95D46B",
"+. c #98D96D",
"@. c #86E56E",
"#. c #8DE86F",
"$. c #9EE26F",
"%. c #A2E96D",
"&. c #A5EE70",
"*. c #A8EF70",
"=. c #A9F370",
"-. c #A8F271",
";. c #AAF471",
":. c #ABF471",
">. c #ACF471",
",. c #ACF772",
"<. c #ACF872",
"1. c #ADF872",
"2. c #AEF872",
"3. c #AEFA72",
"4. c #AFFC73",
"5. c #B0FD73",
/* pixels */
"o $ % 5 9 8 8 8 8 8 8 8 9 8 9 8 9 8 8 8 8 8 8 8 8 8 9 8 8 8 9 8 9 8 8 9 8 9 8 8 8 8 9 8 9 8 8 8 9 8 9 8 8 8 9 9 8 8 9 8 8 8 % % ",
"o 4 9 9 9 8 8 9 8 9 9 8 8 8 8 8 8 8 8 9 8 9 9 8 9 8 8 8 8 9 8 8 8 8 8 8 8 8 8 9 9 8 8 9 8 9 9 8 8 9 8 9 8 9 8 8 9 8 8 8 8 9 8 q ",
"o 4 9 9 8 8 8 8 8 8 8 8 8 9 9 8 9 8 8 9 8 8 8 8 8 8 9 8 8 8 8 9 9 9 8 9 9 8 8 8 8 8 8 9 8 9 8 9 8 8 9 8 8 8 9 9 8 9 8 9 8 9 8 9 ",
"o 4 9 9 9 9 q 8 9 8 9 8 8 8 9 8 8 9 8 9 9 8 9 8 8 9 8 8 9 8 9 9 8 8 8 8 8 8 8 9 9 8 8 8 9 8 9 8 8 9 8 8 8 9 8 9 8 8 8 8 8 8 8 8 ",
"o 4 9 8 9 8 8 8 8 9 8 9 9 9 8 8 9 9 9 9 8 9 8 9 9 8 9 9 9 9 9 9 9 9 9 9 8 9 9 8 8 8 9 8 8 9 9 9 9 8 8 8 8 8 9 9 8 9 8 8 9 8 9 8 ",
"o 4 9 8 8 8 9 9 9 9 9 9 q 9 9 9 9 9 9 9 9 9 9 q 9 q 9 9 9 9 9 9 9 9 9 9 q 9 9 9 9 9 9 9 9 9 9 9 9 9 8 q q 8 9 9 9 9 q 8 8 8 8 8 ",
"o 4 9 8 9 7 5 7 5 5 5 7 5 7 5 5 5 5 7 5 5 5 5 5 5 5 7 5 5 5 7 5 5 5 7 5 5 7 5 5 5 7 5 7 5 5 5 7 5 7 5 7 5 5 7 5 5 5 5 7 8 8 9 8 ",
"o 4 9 8 9 & o o o o + o o o o o O o o o o O o o O o o o o O o o o o o o o o o O O o o o o o o o o o o o o O o o o O o @ 8 9 8 8 ",
"o 4 9 9 8 & . . o o o o o o o o o o o o o o o o o o o o o o o o o o o o o o o o o o o o o o o o o o o o o o o o o o o O 8 8 8 8 ",
"o 3 9 8 8 & . . o o X o o X X o . . . o . o . . X o o . o o . . o X X o . o o . o . . o . o . o . o o . . o . . X o . o 8 8 8 8 ",
"o 4 9 9 9 6 > - - - - - - - - - - - > = * * - - > - - - - - - - - - : - - - - - - - > - - - - - - - - - - - ; - : - - ; 8 9 8 8 ",
"o 4 9 8 8 R &.%.%.%.%.%.%.%.%.%.%.%.%.` B ( %.%.%.%.%.%.%.%.%.%.%.%.%.%.%.%.%.%.%.%.%.%.%.%.%.%.%.%.%.%.%.%.%.%.%.%.*.O.f 8 8 8 ",
"o 4 8 8 8 Y +.+.+.+.+.+.+.+.+.+.+.+.+.) N ! +.+.O.+.+.+.+.+.+.+.+.+.+.+.+.+.+.+.O.+.+.+.+.+.+.+.+.+.+.+.+.+.+.O.+.+.+. .w 8 9 8 ",
"o 4 q 8 9 w r r r r r r r r r r r r r w w w r r w w r r r r r r r r r r r r r r r w r r r r r r w t r r w f w f r r r r 8 8 8 8 ",
"o 4 9 9 8 8 8 8 8 8 8 9 8 8 8 8 8 9 8 9 9 8 8 8 8 9 8 8 9 8 8 8 9 8 9 8 9 8 9 8 8 8 8 8 8 8 9 8 8 9 9 9 8 8 9 8 8 8 9 8 8 9 8 8 ",
"o 4 9 9 9 8 9 8 9 8 8 9 8 9 8 8 8 8 9 8 9 8 9 8 8 8 8 9 8 8 8 8 9 8 8 8 8 8 8 8 8 8 8 9 9 8 8 9 9 8 9 8 9 8 8 8 8 8 8 9 8 8 8 8 ",
"o 4 9 9 9 8 7 7 8 7 8 8 8 7 8 8 8 7 8 8 8 8 8 7 8 8 7 8 8 7 8 8 7 8 8 7 7 9 7 9 8 9 7 8 8 8 8 8 8 8 8 8 8 7 7 8 7 8 8 7 8 8 8 8 ",
"o 4 9 8 9 & O # O O o O O O O O O o O O o O O o O O o @ O o o $ O O o $ O o + o o O o # o + o o o o o o + @ O O O O o $ 8 8 8 9 ",
"o 4 8 8 9 % o o o o o o o o o o o o o o o o o o o o o o o o o o o o o o o o o o o o o o o o o o o o o o o o o o o o o $ 8 8 9 8 ",
"o 4 9 8 9 % o o o o o o o o o o o o o o o o o o o o o o o o o o o o o o o o o o o o o o o o o o o o o o o o o o o o o O 8 8 9 8 ",
"o 4 9 8 9 & # # # # # # # # # # # # # # # # # # # # # # # # # # $ # # # $ # # # # # o # $ $ + # $ # @ # # # # # # # # $ 7 9 8 8 ",
"o 3 9 9 8 F o.o............... ...............................} .................._ M H .. .......o.....} o...} ....o.[ w 9 8 9 ",
"o 4 8 8 8 E =.*.&.&.&.&.%.*.*.*.&.&.*.&.%.*.*.*.&.&.&.&.&.&.&.&.*.%.*.%.%.=.%.*.*.X.V ~ %.*.&.*.%.%.=.&.%.&.&.&.%.*.*.+.r 8 8 8 ",
"o 4 8 8 8 f h h h h h h h h h h h h h h h h h h h h h h h h h g x h h x h h x h h g y u h h h h x h h h x h h h h x h h 9 8 8 9 ",
"o 4 9 9 9 8 8 8 8 8 7 8 8 8 8 8 8 8 8 8 8 8 8 8 8 8 8 7 8 8 8 8 8 5 8 8 8 7 8 8 8 8 8 8 8 8 8 8 8 8 8 7 7 8 7 8 8 7 8 8 8 8 8 9 ",
"o 4 9 9 8 9 8 8 8 8 8 8 8 8 8 8 8 8 8 8 9 9 8 8 8 8 8 8 8 9 8 8 9 9 8 9 8 8 8 8 8 8 8 8 8 8 8 8 8 8 9 9 9 9 8 8 8 8 8 9 8 8 8 8 ",
"o 4 9 9 9 9 9 8 8 8 8 8 8 8 8 8 8 8 8 8 9 9 9 e 8 8 8 8 8 8 8 8 9 9 9 9 8 8 8 8 8 8 8 8 8 8 8 8 8 8 9 9 9 9 9 9 8 8 8 8 8 8 9 8 ",
"o 4 9 9 9 & $ # $ $ $ $ $ $ $ $ $ $ $ $ % @ @ @ @ % O % $ $ $ $ $ $ $ $ $ $ $ $ $ $ $ $ $ $ $ $ $ $ $ $ $ $ $ $ $ $ $ % 8 9 8 9 ",
"o 4 9 9 9 $ o o o o o o . o o o X o o o o o o o O X o o o o o o o   o o o o o o o o o o o o o .   X X o o o o o o . . O 8 8 8 8 ",
"o 4 9 8 9 & o o o o o o o o o o o o o o o o o o X O o o o o o o o   O o o o o o o o o o o o o o o O o o o o o o o o o + 8 8 8 8 ",
"o 4 9 8 9 % o o o . o . o . o o X o o o o @ o o X X . o . o . o o o . o o . . o o . . o . o . o o X o o . o o o o . . + 8 9 8 8 ",
"o 4 9 9 8 v J J J J J J J J J J J D n n a S J J E J J J J J J J J J J J J J J J J J J J J J J J J J J J J J J J J J J G q 8 9 8 ",
"X 4 9 8 9 W 4.;.3.;.;.-.3.;.<.<.<.] C C C ' <.-.<.:.:.-.3.:.<.<.=.>.=.>.>.>.1.1.;.,.,.,.,.,.;.=.3.;.,.,.-.<.<.-.<.<.&.+.t 9 8 9 ",
"X 4 9 8 8 x L b b L L b b b b L b c s s s c L b L b L b b v L L b b b b b b b b b b b b b b b b b b b b b b L L L L b b e 9 8 8 ",
"@ 4 9 8 9 8 7 7 8 8 8 8 8 7 8 7 8 8 8 8 9 8 7 7 9 8 8 7 9 7 8 7 8 7 8 8 8 8 8 8 7 8 8 8 8 7 8 8 8 8 8 8 8 7 7 7 8 8 8 8 8 9 8 9 ",
"o 4 9 9 8 8 8 8 8 8 8 8 8 8 9 9 8 8 8 9 8 9 8 8 8 8 8 8 8 8 8 8 9 9 8 8 8 8 8 8 8 8 8 8 8 8 8 8 8 8 8 8 9 9 9 9 8 8 8 8 8 8 8 8 ",
"o 4 9 9 9 9 9 8 8 8 8 9 8 8 q q 9 8 8 8 9 9 9 8 9 8 8 9 q 8 9 9 9 9 9 9 8 8 8 8 9 9 9 9 9 9 9 9 8 8 9 9 9 9 9 9 9 9 9 9 9 8 8 8 ",
"o 4 9 9 9 4 2 2 & & & & & & $ & 2 2 2 2 2 2 2 2 3 2 % 2 % & 2 2 2 % 2 3 2 2 2 2 2 % % 2 % 3 $ 2 & 2 2 2 & & & 2 & 2 2 2 8 8 9 8 ",
"X 4 9 9 9 % X o o X X O o o o o X X X X o X o o o o   X o o   o   o o o X       o o o o o o o o   X X o X X o o X o o O 8 8 8 9 ",
"o 4 9 9 9 2 o o o o o X o o o o o O X O o o o o o o X O o o o o o o o o o O o   o o o o o o o o O   o o o o o o o o X O 8 9 8 8 ",
"o 4 9 8 9 %     X X X X X X X X     X X X X X X . . .           X X X   o X X o o X X X @ o   X       X     X X X X X o 8 9 8 9 ",
"o 4 9 8 9 z A A l L A A A A A l A A A l A A A A A l A A A A A A A j i i i a l k i p l l A l l A A A A A A A v A A A A l q 9 8 8 ",
"o 4 8 8 8 W 4.3.4.4.;.<.3.3.<.3.<.3.<.3.-.3.3.3.3.3.3.3.3.3.3.<.3.@.Z Z C / :.#.C / 5.3.,.3.,.3.<.3.<.3.<.<.<.<.<.<.<.$.r 8 9 8 ",
"o 4 q 9 8 b R R R Y R Y R R R R R R R R R R R R R R R Y R R R R R U m m m K R U m K R R R R R Y R R R R R R R Y R R R I q 8 9 8 ",
"o 4 9 9 8 8 8 8 8 8 8 8 8 8 8 8 8 8 8 8 8 8 8 8 8 8 8 8 8 8 8 8 8 8 8 8 8 8 8 8 8 8 8 8 8 8 8 8 8 8 7 8 8 8 8 8 8 8 8 8 9 9 9 8 ",
"o 4 9 8 8 8 8 8 8 8 8 8 8 8 8 8 8 8 8 8 8 8 8 8 9 9 8 8 8 8 8 8 9 8 9 9 8 8 8 8 8 8 9 9 8 8 8 9 8 8 8 8 9 9 8 8 8 8 8 9 9 9 9 8 ",
"o 4 9 8 8 8 8 8 9 9 8 8 9 9 9 9 8 8 9 9 9 9 8 8 9 9 9 9 8 9 9 9 9 9 9 9 9 9 9 9 9 9 9 9 8 9 9 9 9 9 8 9 9 9 9 9 8 8 9 9 8 8 8 8 ",
"o 4 8 8 8 7 4 4 4 4 5 5 4 5 4 4 4 4 5 4 4 5 4 4 4 4 4 4 4 4 4 4 4 4 4 4 4 4 4 5 4 4 4 4 4 4 4 4 4 4 5 4 4 4 5 4 4 4 4 4 8 8 9 8 ",
"o 4 9 9 8 & . o o o o o o o o o o o o o o o o o o o o o o o o o o o o o o o o o o o o o o o o o O o o o o o + o o o o + 8 8 8 8 ",
"o 4 9 9 8 & o o o o o o o o o o o . o o o o o o o o o o o + o o + o o o o o o o o o o o o o o . X o o o o o o o o o . + 8 8 8 8 ",
"o 4 9 8 8 %   o X X X X X X X X .   . . . . o o   o     o . o +     . o o . o o     o   . . . .   + X X   . o o   X   + 8 8 8 8 ",
"o 3 9 9 9 0 < 1 1 1 1 1 d 1 1 d < < < < < , : , < < < d 1 1 > 0 < < d 1 1 1 d > 1 < < 1 < < 1 1 , 1 d 0 1 1 1 , 1 < < 0 8 8 8 8 ",
"o 4 9 9 8 R ;.&.=.=.=.=.;.=.=.=.*.,.=.=.=.] V ` *.=.=.*.>.=.=.=.*.;.=.=.=.=.=.=.=.=.=.=.>.*.>.>.3.=.*.=.>.=.>.=.=.=.=.$.r 9 8 8 ",
"o 4 9 9 8 I } | | | | |  .| | | | ..| |  .Q M T  .| | | | | | | | | | | | | | | | | | | | ..| | | | | | | | | | | | | { r 8 9 8 ",
"o 4 9 9 8 9 9 8 9 8 q 9 9 q 8 q 9 9 9 9 8 9 9 8 9 q 9 9 q 8 q 8 8 q 8 q q 9 8 8 q 8 8 q 8 9 w 8 9 9 q 9 8 q q 8 8 q 9 8 8 8 8 8 ",
"o 4 9 9 8 9 8 8 8 8 8 8 8 8 8 8 8 9 9 9 8 8 9 8 9 8 8 9 8 8 8 8 8 8 8 8 8 9 8 9 9 8 8 9 8 9 8 8 9 9 8 9 8 8 8 8 8 8 9 8 q 8 9 8 ",
"o 4 9 9 8 9 8 8 9 8 8 8 8 8 9 8 8 8 9 9 8 9 9 8 9 8 9 8 8 8 8 9 8 9 8 8 q 8 8 8 9 8 9 9 8 8 9 8 9 8 8 9 9 8 8 9 8 8 8 9 8 9 8 8 ",
"o 3 9 8 8 8 9 9 9 8 9 8 9 8 8 8 9 8 8 8 8 8 8 9 8 8 8 8 9 8 9 8 8 8 8 9 9 9 8 9 8 8 8 8 9 8 8 8 8 8 9 8 8 8 9 8 8 8 8 9 8 8 9 8 ",
"o 4 9 8 9 8 9 8 8 q 9 8 8 8 9 8 8 9 9 9 9 8 8 8 8 8 8 9 8 8 8 8 8 8 8 8 8 9 8 9 8 9 9 8 8 8 8 8 9 8 9 8 8 9 8 8 8 9 8 8 9 q 8 8 ",
"o 3 7 8 9 8 8 9 8 8 9 8 9 9 8 8 9 8 8 9 8 9 9 8 8 9 8 8 9 8 8 8 9 8 9 8 8 8 8 8 8 9 8 9 8 9 8 9 9 8 8 8 9 8 8 8 9 8 9 8 8 8 7 7 ",
"o o o 5 8 8 8 8 9 9 9 9 8 9 9 8 9 9 8 9 9 9 8 9 8 9 9 8 8 8 8 8 9 8 8 8 8 8 8 8 8 9 8 9 9 9 8 8 8 9 9 9 8 8 8 8 8 8 9 9 9 8 + o ",
"o o o 4 8 8 5 8 7 7 7 7 7 7 7 7 7 7 7 7 7 7 7 8 7 7 7 7 8 8 7 8 8 7 7 8 7 8 8 7 7 7 7 7 7 7 7 7 7 7 7 7 7 8 7 8 7 7 8 8 7 5 o o ",
"o o o o @ O o @ O o O O o O @ + O O O o O O O o O O # o O o @ o o o o O + @ o o O O O O O O O O O O o + $ o o O o O o o o $ o o ",
"o o o o o o o o o o o o o o o o o o o o o o o o o o o o o o o o o o o o o o o o o o o o o o o o o o o o o o o o o o o o o o o o "
};
