/* XPM */
static char *a37b5aa262ae48d7fbb156aec94f40efDukdc0ErJ68ZBtrI[] = {
/* columns rows colors chars-per-pixel */
"64 64 203 2 ",
"   c None",
".  c #3A351A",
"X  c #13113E",
"o  c #111030",
"O  c #403513",
"+  c #5B4B13",
"@  c #7F731F",
"#  c #5F5434",
"$  c #4C4927",
"%  c #775C3E",
"&  c #7C7337",
"*  c #3A2E52",
"=  c #442D47",
"-  c #443E73",
";  c #70624F",
":  c #826F17",
">  c #8E790C",
",  c #A4764D",
"<  c #8F5F66",
"1  c #A68F14",
"2  c #8B8231",
"3  c #B19C33",
"4  c #BFAB3C",
"5  c #C5AF2B",
"6  c #CAB53B",
"7  c #A68F41",
"8  c #A99C44",
"9  c #A89756",
"0  c #BEAD41",
"q  c #BD887C",
"w  c #C09944",
"e  c #C68F59",
"r  c #E2985A",
"t  c #C3B34B",
"y  c #D5BC4F",
"u  c #CFBE50",
"i  c #D1BC50",
"p  c #D6A649",
"a  c #E7B44D",
"s  c #E39E65",
"d  c #E39C6B",
"f  c #E29E74",
"g  c #DFA661",
"h  c #E8A166",
"j  c #E4A26C",
"k  c #E8A56D",
"l  c #EBB96C",
"z  c #EDB865",
"x  c #E5A572",
"c  c #EAA772",
"v  c #E6A973",
"b  c #EAA974",
"n  c #E1A47C",
"m  c #E3AA7B",
"M  c #EAAE7B",
"N  c #F2AE76",
"B  c #F4AF78",
"V  c #EFB475",
"C  c #EEB17B",
"Z  c #EDBB7F",
"A  c #EBB872",
"S  c #F2B47D",
"D  c #F4BB7B",
"F  c #F9B87A",
"G  c #F4B575",
"H  c #DCC24C",
"J  c #D9C758",
"K  c #E1CA41",
"L  c #EAC750",
"P  c #F4C953",
"I  c #EDD95C",
"U  c #E9D457",
"Y  c #F2DC5C",
"T  c #F9DB5C",
"R  c #F8DB54",
"E  c #EFD848",
"W  c #FEE646",
"Q  c #FEE64D",
"!  c #FFE94B",
"~  c #FDE554",
"^  c #FFEA55",
"/  c #FEE65D",
"(  c #FFE95B",
")  c #F7E15F",
"_  c #DBC976",
"`  c #F2C968",
"'  c #FACB6E",
"]  c #F3C965",
"[  c #FDDB63",
"{  c #F6D66F",
"}  c #FEDB6D",
"|  c #F6D966",
" . c #F1C871",
".. c #FBCB74",
"X. c #F2C97F",
"o. c #FCCC7C",
"O. c #FED775",
"+. c #FCDD73",
"@. c #FBD17B",
"#. c #FCDB7D",
"$. c #FEE761",
"%. c #FEE962",
"&. c #FCE56B",
"*. c #FEE96B",
"=. c #FFF063",
"-. c #FBE573",
";. c #FDE973",
":. c #FAE47B",
">. c #FBE97C",
",. c #F7E270",
"<. c #645F82",
"1. c #8D6C88",
"2. c #8C8586",
"3. c #B7AB81",
"4. c #978BA8",
"5. c #B1AFBA",
"6. c #DDA888",
"7. c #E2A780",
"8. c #E3AD83",
"9. c #E2AD89",
"0. c #E5B184",
"q. c #ECB481",
"w. c #EEBB80",
"e. c #E3B28B",
"r. c #E5B88F",
"t. c #ECBB8D",
"y. c #F1B782",
"u. c #F5BB85",
"i. c #FABC82",
"p. c #F4BB8B",
"a. c #E4B691",
"s. c #E4B993",
"d. c #E5BA96",
"f. c #C19CA5",
"g. c #E2BDB4",
"h. c #EDC48D",
"j. c #F7C086",
"k. c #FECC85",
"l. c #FECD8B",
"z. c #F5C68B",
"x. c #F6D483",
"c. c #FAD485",
"v. c #F7DF83",
"b. c #FBD78B",
"n. c #F6DD8C",
"m. c #FCD98E",
"M. c #FADD85",
"N. c #ECC293",
"B. c #E6C29D",
"V. c #EAC39C",
"C. c #ECCC9C",
"Z. c #F6C492",
"A. c #FBC794",
"S. c #F3CB96",
"D. c #FCCB94",
"F. c #F3C59E",
"G. c #F5CD9C",
"H. c #FDCD9D",
"J. c #EFDA9D",
"K. c #E6D890",
"L. c #F4D692",
"P. c #F4DD95",
"I. c #F2D39A",
"U. c #FBD59B",
"Y. c #F3DC9B",
"T. c #FADC9C",
"R. c #FBD894",
"E. c #F7E185",
"W. c #F8E382",
"Q. c #FEEA84",
"!. c #F6E38B",
"~. c #F8E38B",
"^. c #FFED8D",
"/. c #F4E195",
"(. c #F2E099",
"). c #D2CAAB",
"_. c #E9CBA5",
"`. c #EACDAC",
"'. c #E5C3A0",
"]. c #F3CDA2",
"[. c #EED4A5",
"{. c #EDD3A4",
"}. c #EED9A2",
"|. c #EAD4AA",
" X c #F3D1A1",
".X c #F2DAA1",
"XX c #FCD9A4",
"oX c #F3D0B5",
"OX c #F9E9A8",
"+X c #FEF2AC",
"@X c #FFF3A3",
"#X c #FFF4B9",
"$X c #CABBCA",
"%X c #D5D2DF",
"&X c #EBDADC",
"*X c #FFEDCA",
"=X c #FFF9C6",
"-X c #E0E0DF",
";X c #FDF6DB",
":X c #FFFCDA",
">X c #F2E6D2",
",X c #F2EDF1",
"<X c #FBF9F1",
/* pixels */
"                                                                                                                                ",
"                                                                                                                                ",
"                                                                                                                                ",
"                                                                                                                                ",
"                                                j j j j f f f f f f f f x d j j                                                 ",
"                                              x b N B S b c c x x c c M N B N b x                                               ",
"                                              m M u.i.F F V V V S V V D i.i.i.M m                                               ",
"                                            8.9.t.A.D.l.k.....' ' ' ..o.l.D.A.t.e.9.                                            ",
"                              j j d d d f 7.a.d.V. XU.n.#.O.} $.[ [ O.@.n.U. XV.d.e.7.f d d d h j                               ",
"                            j k b c j d x 8.s.d._.|.Y.n.#.$.) ^ / / &.:.P.Y. X_.'.a.7.x d d k c k j                             ",
"                          m m M y.D V b V w.h.C.{.}.(.!.-.%.^ ^ ^ ( $.-.!.(.}.C.C.h.w.V V S S y.M m m                           ",
"                        m 8.e.r.D.D.k.o...@.c.n.P./.^.Q.;.*.=.^ ^ ( %.-.W.!./.P.L.c.@.o.o.c.D.S.t.e.8.m                         ",
"                      d m e.s.V. XU.b.#.O.} -.#.W.Q.>.;.*.=.=.=.( =.%.*.-.>.E.E.#.-.O.} #.b.U. XB.s.e.m j                       ",
"                    j c M s.B._.[.Y.n.-.[ / $.$.&.*.*.%.%.%.%.%.%.( $.$.&.&.&.&.$.) $.$.+.n.Y.[._.B.s.M c j                     ",
"                  x M y.Z.G.].[..X/.~.-.%.( ^ / / / T Y I I I | ) ) $.%.$.$./ / ( ( ( %.-.E./.Y.{.].G.Z.u.M x                   ",
"                8.0.t.Z.U.XXY.Y./.~.>.*.%.( R R R P L H i u J U I $.$.( ( ( ( ^ ( ^ ^ %.&.>.!./.P.T.T.U.S.t.0.M                 ",
"            k m 0.a.V.]. XT.P.E.:.>.*.*.%./ R P a a p w 7 7 8 t J I %.%.%.( ( / / ( ( ( *.&.&.>.E.~.T.T.].V.s.0.M x             ",
"          j x q.t.V._.[..XP.E.-.&.%.%.%.%.$.[ ] z g e , ; # & 8 J I %.%.%.%.$.%.%.$.$.$.%.$.%.&.,.~.P.Y.[._.V.p.q.x j           ",
"          d x u.D.]. X.XY.!.>.&.^ ^ ^ ( %.} o.z.t.6.q < = o $ 2 0 U %.=.%.%.%./ $./ $.$.( $.%.$.-.E.P.}. X[.].D.u.b j d         ",
"          s k j.l.U.Y.P./.W.,.$.^ Q ! ^ $.:.~.XX`.g.f.1.* o . : 0 U %.=.=.( ( ( ( ( ( %.*.*.&.>.W.n.P.I.].].H.D.z.b j j         ",
"          d x D k.c.M.E.>.;.*.$.( ! W Q $.Q.OX*X,X&X$X4.- o . @ 4 U $.=.=.( ( ( ( ^ ( %.;.>.!./.P.I.I.S.S.A.A.D.j.v j j         ",
"          d c D o.O.&.&.*.*.$.$.( ^ W Q %.^.#X;X<X,X%X5.; = + > 6 U $.=.%.%.( ( ( ^ ( %.;.E.P.J.[.C.N.t.Z C S S S v x x         ",
"        n n m X.o.} $.( ( ( ( $./ ^ W Q %.^.#X:X<X<X-X5.2.; @ 1 6 U ) =.%.*.&.&.$.$.$.[ +.n.Y. X_.B.s.m j d j c b v x           ",
"      8.9.e.e.z.x.#.[ ( ( ^ / $./ ( Q ~ $.Q.+X=X:X;X>X).3.9 3 5 K R ) *.;.>.W.v.v.-.} O.#.m.U. XV.s.e.m j s s k x x             ",
"j j v 8.a.d.'.C.L.#.&.( ^ ^ / $.$./ ~ / $.;.^.@X+X+XOXK._ J H H E Q / *.W.!./.P.L.c.o...o.k.D.A.t.e.8.m                         ",
"j j v 0.s.'._.{.Y.E.,.$.( ( / / $./ / / / &.;.>.>.>.-.,.,.| U Q Q ^ &.,.!.(.}.{.C.h.w.V V F F i.M m v                           ",
"c c M q.N.C.{.}.(.E.,.%.( / / $.$.$.$.$.$./ / ^ ^ ^ ( ( ( %.%.%.=.$.,.:.n.J.|._.B.r.8.b c N N B x j                             ",
"B B Z j.h.L.Y./.~.>.&.%.( ( / / $.$.$.$.$./ ~ Q W W Q ^ ( =.*.*.>.:.E.n.Y.C.C.B.d.e.7.f d d d d j                               ",
"c b V D x.x.v.:.>.;.&.$./ / $.$.$.$.$.%.$./ ( ~ Q ~ ~ ~ ^ %.*.>.W.n.P.I.I.C.N.e.0.8.                                            ",
"f x v A  .{ &.&.*.%.%.$./ %.$.%.$.$.$.$.$./ $./ / / ( ( ( ( &.E./.J.{.].S.p.y.M x                                               ",
"f f b l ` | T ( ( ( %.%.$.$.$.$.$.$.$.$.$.%.$.$.$.$./ ( ( $.-.v.J.}.|._.F.p.S k s                                               ",
"f x v l ] Y ~ ^ ^ ( ( %.$.$.$.$.$.$.$.$.$.$.$.$.$.$./ ^ ( / -.v.(.|.`.`.F.p.N h r                                               ",
"f x v l ] T ~ ^ ^ ( ( $.$.$.$.$.$.$.$.$.$.$./ $.$.$./ ( ( / -.!.J.|.`.`.F.p.N h r                                               ",
"f j v l ` | / ( ( ( %.$.$.$./ $./ $.$.$.$.$.%.$.$./ / ( ( / -.v.(.}.|._.F.p.S k s                                               ",
"x x v A  .{ &.&.*.%.%.$.$.$.$.$.%.$.$.$.$.$.$.$.$.$./ ( ( / &.W./.}.{.{.F.Z.y.M x                                               ",
"b b b X.X.X.E.W.>.;.&.$./ / $.$.$.$.%./ $.$.$.$.$.$./ / / / &.>.E.!.K.I.I.S.p.e.9.8.                                            ",
"B B S u.h.I.P./.!.>.,.%.( ( / $.$.$.$./ $.$./ $.$.$./ / / $.$.&.,.:.E.n.Y.C._.V.s.e.7.f d s d j j                               ",
"c c C q.N._.{.J./.W.-.%.( ( / / $.$.$.%.$.$.%.$.$.$.$.$.$.$.$.$./ &.&.E.n.J.{._.B.r.0.c c N B B c j                             ",
"j x m 0.s.'._.J.Y.v.-./ ( ( / / $.$.$.$.$.$.$./ $.$.$.$.%.$./ ( ^ ( %.,.!.P.}.{.C.h.y.V B F i.i.C v m                           ",
"j j v 8.d.d.d.G.L.v.&./ ^ ( ( $.$.$.$.$.$.$.%.$.$.$.$.$.$.$./ ( ^ ^ / *.:.!.P.Y.L.x.o.....k.D.A.s.e.8.m                         ",
"      7.9.e.r.h.c.+.&.( ( ( ( $.%.$.$.$.$.$.$.%.$.$.$.$.$.%./ / ( ( / $.-.>.W.v.#.+.+.} #.b.U. XB.s.e.m j s s j x x             ",
"        n n M X...} [ ( ( ( / %./ $.$.$./ $.$.$.$.$.$.$.$./ $./ / / $.$.$.&.&.&.$.$.$.&.+.n.Y.[._.B.s.M x j j c b x x           ",
"          f c F o.O.+.*.*.%.%.$./ / $.$.$.$.$.$./ %.$.$.$.$.$.%.$.$.$.$./ $./ / ( ^ ( $.-.!.P.Y.{.C.N.t.q.C B S S v x x         ",
"          d j F k.c.v.E.>.-.*.%.( ( ( $.%.$./ $.$.$.$.$.$.$.$.$.$.$.$.$./ ( ( ( ( ^ ( $.*.>.!./.P.Y.I.S.A.A.A.l.j.b j j         ",
"          d k u.D.U.R.P.!.~.-.$.^ ^ ( ( $.$.$.$.$./ %.$.$./ $.$.$.$.$.$./ / ( ( ( ( ( %.%.&.,.>.E.n.Y.I.].H.H.H.p.M j j         ",
"          d v u.D. X.X[.Y.!.:.$.( ^ ( / $.$.$.$.$.$.$.$.$.%.$.$.$.$.$.$.%./ / $.$./ $.$.$.%.%.$.,.W.P.J.|.].].D.u.x g j         ",
"          j k q.p.V._.|.}.P.v.-.$.$.%.$.%.$.( %.$.$./ %.$.$.$.$.$.$.$.%.$.$.$.$.$./ $.$.%.$.%.&.-.E.P.Y.|._.V.t.q.c j           ",
"            x m 0.s.d.]. XT.P.n.:.>.&.&.%.( ( ( ( / / $./ $.$.$.$.$.$./ / / / ( ( ( ( %.$.*.-.>.W.~.T..XI.C.s.0.m x             ",
"                m 0.t.Z.H.XXT.Y./.!.>.*.%.( ^ ^ ^ ( ( / / $.$.$.$.$.$./ / ( ( ^ ^ ^ ( %.*.>.~./.Y.Y.T.U.A.t.0.M                 ",
"                  x M u.Z.G. X[..XY.~.-.%.( ( / $./ / / $.$.%.$.$.$.$.$./ / / / ( ( ( %.,.~./..X X XH.Z.u.M x                   ",
"                    j x 8.r.'._.{.Y.n.+.$./ $.$.&.&.&.&.$.$.%.( ( %.$.$.&.&.&.&.&./ $.[ -.n.Y.{._.B.s.M x j                     ",
"                      j m e.s.B.I.U.b.#.O.} +.:.W.E.>.,.*.%.( ( ( ( %.*.-.>.E.:.:.+.} } #.b.U. XB.s.e.m j                       ",
"                        m 8.0.t.S.D.k.o...o.x.P.Y.P.!.W.;.%.( ^ ^ ( %.;.W.~.P.Y.L.x.o...o.k.D.A.t.e.8.m                         ",
"                          m m M y.D S V V Z h._.{.J.Y.~.>.$.( ~ ^ ( %.-.~.Y.}.[.C.h.w.V V S D y.m m m                           ",
"                            j x b k j d x 7.a.d._.|.Y.n.#.&./ / ~ ( &.#.n.Y.|._.B.a.8.x d d c c k k                             ",
"                              j j d d d f 7.e.s.V.I.U.m.#.} [ [ [ } } #.n.U.].B.s.e.n f d s d j j                               ",
"                                            8.e.t.A.D.l.o.......' ....o.l.D.A.t.e.8.                                            ",
"                                              m M i.i.i.D V V V V V V F i.i.u.M m                                               ",
"                                              k c N B N b x x b c x b M N N B c x                                               ",
"                                                j d k f x f f f f f f f j j j j                                                 ",
"                                                                                                                                ",
"                                                                                                                                ",
"                                                                                                                                ",
"                                                                                                                                "
};
