/* XPM */
static char *fccffa9887b7458eecb69047448bd99fHi5kM3lwQ9Uqo9w5[] = {
/* columns rows colors chars-per-pixel */
"36 36 124 2 ",
"   c None",
".  c #00002B",
"X  c #645400",
"o  c #6E6825",
"O  c #000044",
"+  c #5A4E55",
"@  c #8B7400",
"#  c #887839",
"$  c #8A576A",
"%  c #CEB833",
"&  c #B38841",
"*  c #AA9E46",
"=  c #E3995D",
"-  c #DFA64C",
";  c #C1AE5D",
":  c #DF9B75",
">  c #E49E66",
",  c #E19768",
"<  c #E39E6A",
"1  c #E19C74",
"2  c #E4A26D",
"3  c #E3A372",
"4  c #E5A975",
"5  c #ECAD74",
"6  c #E4AD7E",
"7  c #F6AE78",
"8  c #F7B276",
"9  c #F5B47D",
"0  c #F9B77D",
"q  c #FAB87E",
"w  c #D5C14D",
"e  c #DCC74B",
"r  c #D7C451",
"t  c #EFD849",
"y  c #E1CC56",
"u  c #EACF54",
"i  c #F3C155",
"p  c #E5D259",
"a  c #F6D654",
"s  c #FDDF55",
"d  c #FAD959",
"f  c #FEE542",
"g  c #FFE845",
"h  c #FEE655",
"j  c #FFEB55",
"k  c #F6E05F",
"l  c #FEE75D",
"z  c #FFE95C",
"x  c #FFF058",
"c  c #F2C965",
"v  c #FFD66B",
"b  c #FEDB6A",
"n  c #F0C772",
"m  c #FFCE75",
"M  c #FCC67A",
"N  c #FFD474",
"B  c #FADF73",
"V  c #FCD97A",
"C  c #FEE761",
"Z  c #FFEA62",
"A  c #FCE56A",
"S  c #FEEA6C",
"D  c #FBE575",
"F  c #FAE47B",
"G  c #FCE979",
"H  c #968AA9",
"J  c #D7A18E",
"K  c #E4AE82",
"L  c #E2AC88",
"P  c #E4B083",
"I  c #E4B48C",
"U  c #EBBD8C",
"Y  c #FDBA80",
"T  c #F2BB88",
"R  c #E4B995",
"E  c #E4BB9A",
"W  c #FFC780",
"Q  c #F4C48F",
"!  c #F4C98E",
"~  c #FDD384",
"^  c #F6DE85",
"/  c #FCD886",
"(  c #FFD58C",
")  c #F6DE8B",
"_  c #E6C199",
"`  c #FCC490",
"'  c #FECA93",
"]  c #F3CC9C",
"[  c #F4D294",
"{  c #F3DB96",
"}  c #F5D399",
"|  c #FFD19D",
" . c #F4DB9A",
".. c #F8DF9A",
"X. c #F7E284",
"o. c #F9E581",
"O. c #FBE981",
"+. c #F6E28C",
"@. c #F5E393",
"#. c #FFEF96",
"$. c #F4E29A",
"%. c #DCD1A0",
"&. c #E6C6A5",
"*. c #E6C9A6",
"=. c #ECCDA4",
"-. c #E7CDAC",
";. c #F3C5A0",
":. c #F6CEA5",
">. c #EED6A6",
",. c #EEDAA5",
"<. c #EBD4A8",
"1. c #F7D3A3",
"2. c #FFD7A2",
"3. c #F2D9A2",
"4. c #FFD9A1",
"5. c #FFEAA3",
"6. c #FFF4B3",
"7. c #B4B5C0",
"8. c #E6D6DD",
"9. c #FFFAC4",
"0. c #FAF2C9",
"q. c #FFEDD8",
"w. c #FFFFF2",
"e. c #F4F6F9",
/* pixels */
"                                                                        ",
"                                                                        ",
"                            < < 1 : 1 1 2 2                             ",
"                          4 q 0 5 5 5 5 q q 4                           ",
"                  <     L R 2.( V v v N ( | R J     <                   ",
"                2 5 2 3 I &.<.+.A h j A ) >.&.I 3 < 5 2                 ",
"              K L | ~ m ~ { @.O.Z x x Z o.$.{ ~ m ~ | I K               ",
"          = 2 I &.>.) C l S S S Z Z Z S A S A C b ) 3.&.I 2 =           ",
"          6 ` 2.3.$.O.Z h s a u p p k Z l h j j l G $.3.2.` 6           ",
"      2 P E =...) D S Z d i - & # * p Z Z Z l l Z S A F ..<._ P 2       ",
"      2 ' 1.,.@.A j j l V Q J $ . o r Z Z Z Z C l l Z D { <.:.' 2 2     ",
"      < M / o.G Z j g z 5.q.8.H O X w Z Z j j z Z G +. .} ' ' ' 4 2     ",
"      3 M b l l l l f h 6.w.e.7.+ @ e Z S S l h C ) ,.*.I 2 2 5 3       ",
"  4 I R [ V z j C l h l #.9.0.%.; % t z G +.) V N ~ 2.R I 2   2         ",
"2 4 R -.,.X.l j l C C C A S S C C h j S ) ,.*.U 5 8 Y 4                 ",
"7 0 !  .@.G l z C C C Z h f f j Z S G ^ { ] E L 1 , < >                 ",
"3 4 n B S S C l C C C C C l l j l F { <.] T 4                           ",
"1 3 c h j l C C C C C C C C C z z F ,.-.;.9 =                           ",
"3 4 c h j j C C Z l C l C C C z l F ,.-.] 7 =                           ",
"2 4 n A S S C Z C C Z C C C C h l D $.>.] Q 4                           ",
"7 9 !  .@.D Z l C C C C C C l l C A D ^ { =.E J 1 , < >                 ",
"2 4 R -.3.X.l h l C Z C C C C Z C l j C +.>.=.U 5 8 q 4                 ",
"  4 I R [ D z j l C C C C C C C C l j l D @.) V N ~ | R P 2   3         ",
"      4 M b l l C C C l C l Z C C C C C C C C l C +.,.-.I 3 < 5 4       ",
"      < W ~ X.G C z l C C C C C C C C l h z j j Z G @. .} ! ' ' 3 2     ",
"    < 2 ' 1.,.@.A j j C C C C C C C C Z C C C C C l C D { <.:.' 2 2     ",
"      2 K E >. .X.D S l l l Z C C C C C C C l l C S A F ..3._ P 2       ",
"          K ` 2.3.$.G Z j j j l l C C l z z j j Z G $.3.2.` 6           ",
"          = 2 I &.3.^ b C A S A Z l l Z S A A C b / 3.&.I 2 =           ",
"              K I | ~ m ~ { { o.S j j Z o.$.{ ~ N ~ | I L               ",
"                2 5 2 3 I &.<.+.A h j A ) <.*.I 3 < 5 2                 ",
"                  2     J R | ( N v v N ( | R L     <                   ",
"                          4 0 0 5 5 5 5 Y Y 4                           ",
"                            < < 1 1 : 1 1 <                             ",
"                                                                        ",
"                                                                        "
};
