/* XPM */
static char *_95f521dabef482094987ef55ad729cejeNvXiGMRrD1nnbG[] = {
/* columns rows colors chars-per-pixel */
"16 15 13 1 ",
"  c #3B00AA",
". c #4501B6",
"X c #5E09C7",
"o c #6D0DDD",
"O c #7A1DD5",
"+ c #841CDA",
"@ c #8123D7",
"# c #9527D7",
"$ c #9336DF",
"% c #BA3FD2",
"& c #983CE0",
"* c #CB4ACF",
"= c #D060F4",
/* pixels */
"oo++ooo+%#oo+#+ ",
"o#=%#oo+#*#oo+o.",
"#=##%#oo+#=%#ooX",
"*#++#=+oo++++oo&",
"%#oo+#+ooo++ooo&",
"#*#oo+ooo#=%#ooO",
"+#=%#ooo#=##%#oO",
"o++++oo+*#++#=+O",
"oo++ooo+%#oo+#+@",
"o#=%#oo+#*#oo+o$",
"#=##%#oo+#=%#oo&",
"*#++#=+oo++++oo@",
"%#oo+#+ooo++ooo.",
"#*#oo+ooo#=%#oo ",
"+#=%#ooo#=##%#o."
};
