/* XPM */
static char *_9e5d0f9881240d9fd3733a743549b0daJZ4uUFKZebMR8oL[] = {
/* columns rows colors chars-per-pixel */
"36 36 15 1 ",
"  c None",
". c #BFCBDC",
"X c #C1CBDB",
"o c #C0CADC",
"O c #C0CBDC",
"+ c #C1CBDD",
"@ c #C0CCDC",
"# c #C1CCDC",
"$ c #C0CCDD",
"% c #C3CFE0",
"& c #CCD8EA",
"* c #CDD8EA",
"= c #D0DCEE",
"- c #D0DCEF",
"; c #D1DDF0",
/* pixels */
"#%&;;==========================;;*%#",
"%##..++++#++++++++++++++++++++++.#.%",
"&.                                #*",
";.                                .;",
"*+                                #;",
";X                                +*",
"=#                                +=",
"=X                                +=",
"=X                                +=",
"=X                                +=",
"=X                                +=",
"=X                                +=",
"=X                                +=",
"=X                                +=",
"=X                                +=",
"=X                                +=",
"=X                                +=",
"=X                                +=",
"=X                                +=",
"=X                                +=",
"=X                                +=",
"=X                                +=",
"=X                                #;",
"=X                                +;",
"=X                                +*",
"=X                                +;",
"=X                                %*",
"=X                                +;",
"=X                                #;",
"=X                                %*",
"=X                                #;",
"*+                                #*",
";.                                .;",
"*#                                +&",
"%..#.+##+++++++++++++++++++++++..#.%",
"#%&;-;;;=======================;;&%X"
};
