/* XPM */
static char *_4cc850c5833484288c924c8db772197ubkHFcTCsu9kQSJ5[] = {
/* columns rows colors chars-per-pixel */
"64 64 36 1 ",
"  c None",
". c #BFCAD9",
"X c #BFC9DA",
"o c #BFCADA",
"O c #BFCADB",
"+ c #BFCBDB",
"@ c #C0CADB",
"# c #C1CCDC",
"$ c #C0CCDD",
"% c #C1CCDD",
"& c #C1CDDD",
"* c #C2CDDD",
"= c #C1CDDE",
"- c #C2CDDE",
"; c #C3CDDE",
": c #C2CDDF",
"> c #C3CDDF",
", c #C2CEDF",
"< c #C3CEDF",
"1 c #C2CEE0",
"2 c #C3CFE0",
"3 c #C5D1E2",
"4 c #C7D3E5",
"5 c #C8D3E5",
"6 c #C8D4E6",
"7 c #C9D4E6",
"8 c #CBD7E9",
"9 c #CCD7E9",
"0 c #CCD7EA",
"q c #CCD8EA",
"w c #CDD8EA",
"e c #CCD8EB",
"r c #D0DCEE",
"t c #D0DCEF",
"y c #D1DDEF",
"u c #D1DDF0",
/* pixels */
"##340rurrrrrrrrrrrrrrrrrrrrrrrrrrrrrrrrrrrrrrrrrrrrrrrrruuee72##",
"##1370ee0e0009990009990000000009990009990000990000990000008832##",
"31###111<#212@<<<<<<;;;@2#<<112#;@212@;;1;22;@212@;;@2<22#2###13",
"44++++  @@@@@++@@@@@@@@@@@@@+@@@@@@@@+@@X+@@@X@@@+@@++@@  @@+#34",
"84#+                                                        @178",
"e81+                                                        +18r",
"ue3                                                          1eu",
"ue#                                                          #eu",
"r9@.                                                        ##eu",
"r0<.                                                        +10r",
"r9<@                                                        @<0r",
"r9<@                                                        +<0r",
"r9<@                                                        +20r",
"r9#@                                                        +@0r",
"r9#@                                                        @;0r",
"r9#@                                                        @;0r",
"r9#@                                                        @20r",
"r9#@                                                        +#0r",
"r9#@                                                        @;0r",
"r9<@                                                        @<0r",
"r9#@                                                        +20r",
"r9#@                                                        +@0r",
"r9<@                                                        @;0r",
"r9<#                                                        @;0r",
"r9#@                                                        @20r",
"r9#@                                                        +#0r",
"rw##                                                        @;0r",
"rw#@                                                        @<0r",
"rw*#                                                        +20r",
"r9#@                                                        +@0r",
"r9#@                                                        @;0r",
"r9#@                                                        @;0r",
"r9#.                                                        @20r",
"r9<.                                                        +#0r",
"r9<@                                                        @;0r",
"r9<@                                                        @<0r",
"r9<@                                                        +20r",
"r9@@                                                        +@0r",
"r9#@                                                        @;0r",
"r9#@                                                        @;0r",
"r9#@                                                        @20r",
"r9#@                                                        +#0r",
"r9#@                                                        @;0r",
"r9<@                                                        @<0r",
"r9#@                                                        +20r",
"r9#@                                                        +@0r",
"r9<@                                                        @;0r",
"r9<#                                                        @;0r",
"r9#@                                                        @20r",
"r9#@                                                        +#0r",
"rw##                                                        @;0r",
"rw#@                                                        @<0r",
"rw*#                                                        +20r",
"r9#@                                                        +@0r",
"r9#@                                                        @<0r",
"r9#@                                                        @<0r",
"u01                                                          1eu",
"u01                                                          #eu",
"r81+                                                        ##er",
"87#+                                                        @#7e",
"43#+#+  @@@@@@@@@@+@@@X@@@+X@@@@+@@@@@++@@@@+@@@@@++@++@  +++#44",
"11####11#<;;<<<<;;@212@;22;1;<@2@;;;2<2@<<@2@;;;<<2@<<@211#2##11",
"##1478e0009990009900009900000000000000000000000000000000eee731##",
"##14eruuurrrrrrrrrrrrrrrrrrrrrrrrrrrrrrrrrrrrrrrrrrrrrruure843##"
};
